<?xml version="1.0" encoding="UTF-8"?>
<svg enable-background="new 82.992 45.607 863.211 442.84" version="1.1" viewBox="82.992 45.607 90.413 55.072" xml:space="preserve" xmlns="http://www.w3.org/2000/svg" xmlns:cc="http://creativecommons.org/ns#" xmlns:dc="http://purl.org/dc/elements/1.1/" xmlns:rdf="http://www.w3.org/1999/02/22-rdf-syntax-ns#" xmlns:xlink="http://www.w3.org/1999/xlink"><defs><linearGradient id="a" x1="133.45" x2="136.61" y1="49.912" y2="86.319" gradientUnits="userSpaceOnUse"><stop stop-color="#3a4220" offset="0"/><stop stop-color="#768729" offset="1"/></linearGradient></defs><metadata><rdf:RDF><cc:Work rdf:about=""><dc:format>image/svg+xml</dc:format><dc:type rdf:resource="http://purl.org/dc/dcmitype/StillImage"/></cc:Work></rdf:RDF></metadata><g fill="url(#a)"><path d="m140.76 84.571c-0.03 0.20088 0.0456 0.4535-0.31445 0.4707 0.0779-0.09622 0.21071-0.28082 0.31445-0.4707"/><path d="m155.67 84.112c-0.38464 0.01024-0.74328 0.32709-1.0547 0.49804 0.45768 0.10236 0.76731-0.3791 1.1738-0.49023-0.0404-0.0058-0.0794-0.0088-0.11917-0.0073"/><path d="m173.18 76.972c-0.41089 0.37434-1.3906 0.4059-1.0762 1.3066 0.43575-0.34363 0.85098-0.79194 1.0762-1.3066"/><path d="m106.2 72.663c-0.0307 0.27783 0.14447 0.46143 0.42383 0.45704 4e-3 -0.2632-0.15624-0.45119-0.42383-0.45704"/><path d="m95.632 62.862c-0.17759 0.06068-0.38908 0.04781 0 0"/><path d="m97.227 62.413c-0.0029 0.2632 0.08335 0.49107 0.26171 0.68554 0.05557-0.26467-0.05264-0.52031-0.26171-0.68554"/><path d="m90.366 61.462c-0.01901 8.04e-4 -0.03933 0.0029-0.05864 0.0058 0.26028 0.25882 0.48215 0.58259 0.8828 0.61914-0.11844-0.35958-0.43854-0.64121-0.82421-0.62501"/><path d="m103.82 59.478c-0.12575 0.26174-0.0718 0.47638 0.16211 0.65039 0.0673-0.24858 0.0132-0.46469-0.16211-0.65039"/><path d="m103.27 59.312c0.0848 0.1199 0.17007 0.23947 0.25781 0.35938 0.0468 0.2442 0.13642 0.47061 0.26367 0.68556 4e-3 -0.40943-0.21733-0.78319-0.52148-1.0449"/><path d="m95.171 59.216c-0.0658 0.34217 0.01462 0.6846 0.19727 0.97851 0.42844-0.30268 0.15367-0.77233-0.19727-0.97851"/><path d="m94.909 55.458c-0.4533 0.06288-0.61914 0.47337-0.61914 0.8828 0.14184-0.3407 0.63669-0.46314 0.61914-0.8828"/><path d="m83.552 46.419c-0.22372 0.2632-0.91497 1.1269-0.33007 1.3711 0.1974-0.40797 0.50554-0.90025 0.33007-1.3711"/><path d="m89.932 60.769c-0.06829 0.2237 0.01886 0.44865 0.21094 0.59961-0.14718-0.18632-0.20574-0.38817-0.21094-0.59961"/><path d="m89.934 60.659c-0.0015 0.0367-0.0029 0.07311-0.0015 0.10938 0.0117-0.03846 0.02764-0.07721 0.04884-0.11522-0.0155 0.0029-0.03231 0.0044-0.04694 0.0058"/><path d="m148.55 85.651c0.02-0.01813 0.0443-0.03378 0.0624-0.05279-0.34655 0.08627-0.69392 0.19266-1.0098 0.35936 0.12473-0.07472 0.49427-0.18897 0.94728-0.30663"/><path d="m138.02 64.089c-0.0102 0.02603-0.0193 0.05206-0.0292 0.07808-0.14389 0.74721-0.10031 0.4851 0.0292-0.07808"/><path d="m95.223 45.611c0.0405 0.17146 0.09358 0.33238 0.18249 0.46005 0.18424 0.26905 0.55589 0.28085 0.68749 0.60547 0.12575 0.31877 0.19081 0.77881 0.4043 1.0508 0.25004 0.31292 0.91263 0.34167 0.93164 0.82421 0.0541-0.18278 0.1526-0.33273 0.29298-0.45702-0.10528 0.27344 0.63678 0.38874 0.94531 0.42383-0.64778-0.01024-0.60688 1.7016-0.57617 2.209 0.02632 0.47669 1.1085 0.59293 1.4434 0.68358 0.48254 0.13014 0.01316 1.214 0.4082 1.5664 0.36263 0.32462 0.71983-0.03729 1.0547 0.16602 0.42259 0.25736 0.48358 0.79713 0.31249 1.2168 0.41089-0.27344 0.46131 0.01813 0.39259 0.35742-0.20033-0.39773-0.49388 0.07852-0.62109 0.33009 0.0877-0.60098-0.51872 0.4739-0.60353 0.6289-0.22226 0.42259-0.29293 0.89244-0.27538 1.3633-7e-3 -0.37287 0.13438-0.43999 0.42383-0.19726-0.11844 0.07604-0.23655 0.15394-0.35938 0.2285 0.62292 0.14769 0.87539 0.42644 1.3711-0.03129-0.0585 0.36849-0.55207 0.40454-0.45702 0.81836 0.25589-0.08335 0.48375-0.21467 0.68554-0.39453 0.19594 0.20472 0.15314 0.49596 0.33007 0.69922 0.33193 0.13599 0.29666 0.16588-0.0996 0.08393 0.30123 0.09943 0.5376 0.34645 0.8125 0.49414 0.40504 0.21349 0.49415-0.22408 0.49415 0.35351 0.88612-0.37141 0.83904 1.0346 0.66211 1.5215-0.24566 0.6741 0.81067 1.2577 1.4277 1.1875-0.18279 0.60976-0.49533 0.1354-0.88282-0.03129 1.414 1.1303 2.291 2.307 3.1055 3.9023 0.70772 1.3833 2.2156 2.704 2.3867 4.2832 0.0819 0.73696-0.23245 1.304 0.0234 2.041 0.23542 0.68579 0.4007 1.0103 0.84961 1.5703 0.48692 0.60391-1.2483 2.2387-1.4004 2.7285 0.26906-0.05703 1.0014 0.24576 0.67384 0.60547-0.34802 0.38896-0.8225 0.25436-1.2305 0.50586-0.58344 0.36264-0.18566 1.6512 0.0234 2.1191 0.17693 0.40066 0.4605 1.1041 0.76757 1.4082 0.27198 0.27196 0.19093 0.67183 0.46876 0.92187 0.53079 0.47815 2.0446 0.7872 2.166 1.3926 0.56442 0.39042 1.1042 0.4162 1.4785 1.0684 0.2208 0.38165 0.40036 0.78287 0.6621 1.1426 0.52641 0.72674 1.647 1.1206 2.4629 1.4101 0.48986 0.17401 1.3759 0.54426 1.8965 0.44337 0.34508-0.06873 0.72611-0.17823 1.0215 0.09373 0.74867 0.68872 1.21 1.6013 2.0566 2.252 1.0265 0.7896 2.1988 1.081 3.3613 1.5957 0.50302 0.22226 0.86122 0.62005 1.3438 0.85547 0.46061 0.22519 1.0272 0.27318 1.5215 0.40039 0.4957 0.12722 1.2126 0.19593 1.6191 0.54102 0.33338 0.28514 0.43047 0.66192 0.87499 0.82422 0.54688 0.20033 0.9886 0.2883 1.4434 0.68749 0.35532 0.31146 0.64881 0.56459 1.1328 0.64062 0.92707 0.1433 1.4536 0.20296 2.2871 0.65626 0.75159 0.40358 1.08 0.50168 1.8418 0.34961 1.0119-0.19594 1.8387-0.64897 2.8359-0.94727 1.104-0.33047 1.6872-1.0646 2.9024-1.1465-0.21495-0.11113-0.44429-0.15865-0.68556-0.13087 0.10528-0.57759 0.84951-0.83012 0.78517-0.03319 0.16669-0.21349 0.38328-0.29975 0.65233-0.26173-0.0907 0.23835-0.28363 0.43132-0.52344 0.52344 0.91245-0.03071 1.727 0.37328 2.5137 0.78125-0.24566-0.35971-1.5223-0.59369-1.4316-1.1113 1.3496 0.45037 1.8841 1.299 2.8828 2.207 0.49716 0.45476 0.82358 1.0243 1.2871 1.4863 0.31585 0.31438 0.89817 0.50329 1.0195 0.97852-0.57466-0.86565 0.26303 0.74112 0.44727 0.9707 0.31877 0.39188 0.67147 0.75412 0.99024 1.1504 0.24127-0.28806 0.94894-1.9677 0.79101-2.2266-0.11844-0.46792-0.41571 0.10777 1.6797-3.7949 1.5573-0.04533 3.3213 0.4553 4.4297 0.03129 0.0409 0.10236 0.34059-1.3756 0.20314-1.4414-0.65948-0.32023-0.58372-1.0885-1.252-1.4453-0.71211-0.38018-1.1475-1.1324-1.7383-1.7305 0.83494 0 1.6139 0.33161 1.709-0.73437 0.0395-0.39919 0.0181-0.73459 0.0722-1.1309 0.0673-0.48693 0.96442-0.35351 1.2832-0.35351h4.2129c0.64047 0 0.89137 0.24968 1.0391-0.20508 0.18863-0.59367 0.66642-0.27154 0.88868-0.02734 0.36995-0.69895 0.89142-1.8464 1.6152-2.25 0.3407-0.19009 0.66835-0.17306 0.87891-0.56055 0.26174-0.47815 0.23089-0.49134 0.73827-0.84374 0.17547 0.92414-0.4044 1.5674 0.35743 2.4141 0.0278-0.62877 0.66017-1.7344 0.93945-2.2988 0.34509-0.68433 0.47346-1.4679 0.92384-2.1055-0.27344-0.0015-0.48651 0.17964-0.58594 0.42383-0.36556-0.51617 1.7188-1.5397 0.0956-1.3379 0.0643-0.53372 0.98267-1.0053 0.84961-1.5332 0.28075 0.59075 0.10177-0.48436 0.19531-0.75195 0.1667-0.47377 0.57825-0.92202 0.92188-1.2773 0.65654-0.67994 1.4147-1.1813 1.7715-2.0937 0.26905-0.68579 0.53364-1.7771-0.31446-2.166-0.57174-0.25589-1.9975 0.27569-1.1699 0.44531-0.48986-0.13745-1.0078-0.4641-1.5371-0.32811 0.21788 0.0058 0.42272 0.04752 0.62305 0.13087-1.1654-0.10967-2.1622-0.60129-3.332-0.16993-0.89636 0.33047-1.657 0.58711-2.6074 0.69531-1.319 0.15207-3.3979 0.43034-3.9199 1.8926 0.10382-0.10821 0.1886-0.22924 0.26171-0.35938-0.24712 0.95777-0.7922 1.7069-0.90625 2.7422-0.0483 0.43282 0.0249 0.93816-0.26171 1.3066-0.28661 0.3641-0.66444 0.56766-0.875 1.0019-0.40358 0.83202-0.39514 1.5864-1.2813 2.1055-0.63607 0.37434-1.5339 0.62961-1.9316 1.3008 0.33924-0.15938 0.65877-0.36167 0.98047-0.55469-0.23543 0.16377-0.46817 0.33528-0.68751 0.51952 1.0046 0.07165 0.0896 0.94999-0.30663 1.1094-0.079 0.10967-0.13921 0.2307-0.18164 0.35938-0.17547-0.0073-0.3509-0.02983-0.52344-0.06639-0.27783 0.02486-0.47554-0.07633-0.71681 0.13277 0.0994-0.32316-0.61884-0.94704 0.0977-0.81836-0.35387-0.72089-3.046-0.22836-2.8398 0.68554-0.0807-0.36343-1.9614-0.03173-3.166 0.28125-0.4535 0.40806-1.3699 0.59129-1.916 0.72852-0.90952 0.22665-1.3601 0.29251-1.793-0.51173-0.50887-0.94607-1.4297-1.5191-2.5352-1.5644-0.34217-0.01462-0.7022-0.03787-1.0078-0.209-0.038 0.17108-0.14345 0.25389-0.31446 0.24219-0.0551 0.01024-0.0948 0.02866-0.12692 0.05074 0.0768-0.21675 0.0618-0.41651-0.20898-0.48829 0.18716-0.18863 0.37695 0.14023 0.65039 0.16212-0.51032-0.22665-0.56621-0.65855-0.72852-1.1309-0.18863-0.54542-0.61011-0.96928-0.7461-1.541-0.32023-1.3614-0.57845-2.3493-1.3125-3.5762-0.64193-1.066-1.1471-2.3841-1.2305-3.6563-0.0366-0.60829-0.286-0.6586-0.48633-1.1601-0.21934-0.55712 0.0183-1.1636-0.13087-1.7324 0.32462 0.61853 0.41627 1.2857 0.84179 1.8574 0.22372 0.30122-0.22893 0.81754-0.18945 1.1816 0.37141-0.92414 0.66633-0.88735 0.0215-1.791-0.59806-0.84079-0.70986-1.7586-0.66014-2.7676 0.0497-0.98555 0.6608-1.7634 0.75585-2.7226 0.0775-0.77353 0.72425-1.8353 0.24609-2.5781 0.20618-0.21349 0.20559-0.08247 0.21875-0.31055 0.0526-0.97386 0.33695-1.4629 0.35157-1.7363 0.0161-0.27052-0.16802-0.20524-0.19727-0.8457 0.0336-0.03363 0.33206 0.2592 0.34961 0.21094 0.019-0.04825 0.47656-1.1802 0.47656-1.2109 9e-3 -0.42698 0.29691-0.21643 0.0411-1.6524-9e-3 -0.04825 0.3262-0.41943 0.3379-0.69726 0.42843 0.58051 0.70158-0.26319 0.6621-0.26758 0.36118-0.08188 0.2519 0.59809-0.0507 1.1172-1.024 1.7661-1.6209 4.0429-1.8496 5.0371 1.0871-2.842 2.0422-5.7157 3.668-8.334-0.57905 0.0058-0.92319 0.89595-1.3867 0.31836-0.5615-0.69603-1.1836-0.56742-1.998-0.59374-0.35094-0.01024-0.46543-0.24548-0.79298-0.44727-0.49861-0.30707-0.7923-0.65925-1.25-0.70312 0.35093-0.03948-0.49269 0.20207-0.7676-0.94141 0.0863-0.74574-0.53758-1.2322-0.53319-1.918 3e-3 -0.54542 0.43304-1.371 0.12882-1.8828-0.12429-0.21056-0.36301-0.20357-0.49608-0.44923-0.17108-0.31292-0.28635-0.64756-0.40625-0.98241-0.26321-0.73112-0.77694-1.2158-0.82227-2.0215-0.0102-0.17584-0.0282-0.35147-0.0512-0.52677"/><path d="m87.307 45.611c0.01023 0.02252 0.02091 0.04489 0.03114 0.06726 0.48254 1.0397-0.7253 1.8408-1.1113 2.6758 0.11698-0.07604 0.23606-0.15394 0.35743-0.22852-0.01755 0.17254-0.337 0.83907-0.10748 0.95312 0.39627 0.19156 0.5708-0.62096 0.56642-0.82421 0.43575 0.35386 0.23415 1.4224-0.16212 1.7324 0.43136-0.87587-1.0707-0.65335-1.043-1.5-0.68433 0.59513-1.6684 0.17465-2.4492 0.09563 0.05557 0.90512 1.2957 1.042 1.4492 1.8476 0.0658 0.33632-0.09709 0.47799 0.24804 0.73242 0.18863 0.05703 0.37681 0.10704 0.56836 0.15234 0.09797 0.10967 0.18079 0.23316 0.24806 0.36914 0.34509 0.27344 0.69075 0.35088 0.87499 0.79102 0.07604 0.18278 0.24854 0.61536 0.52344 0.4121 0.34216-0.24566 0.61632 0.04957 0.95118-0.09373 0.32901-0.14184 0.34997-0.63277 0.55469-0.88282 0.10236 0.33193-0.23876 0.39944-0.22852 0.6875 0.01462 0.40066 0.35195 0.89656 0.56836 1.2168 0.47962 0.69895 1.296 0.79431 1.6543 1.5488 0.65206 1.3634 0.08876 2.3665-0.3418 3.4863 0.01024-0.07633 0.01521-0.15036 0.0117-0.22266-0.0058 0.10938-0.0234 0.21706-0.05074 0.32422-0.03802 0.10163-0.06946 0.20433-0.10353 0.30859-0.16338 0.38706-0.42907 0.75024-0.6621 1.0644-0.056 0.24324 0.062 0.35075 0.2793 0.33399 0.01711-0.29396 0.12663-0.60221 0.24218-0.90626-0.04606 0.20761-0.08057 0.4219-0.09183 0.64649 0.0892-0.21056 0.16661-0.42861 0.22656-0.65234-0.24566 0.93145 0.7649 1.3127 1.1816 1.9648 0.4957 0.77938 1.4322 1.0686 2.0273 1.7383 0.40797 0.45768 0.66051 1.0515 1.1328 1.4551 0.29245 0.25151 0.60332 0.51334 0.77148 0.8672 0.23542 0.48254-0.06054 1.7461 0.50977 2.0019 0.43282 0.19302 1.5973-0.73832 1.916-1.0352 0.8057-0.74721-0.08247-1.1823-0.35743-1.8008-0.1199-0.27344-0.07209-1.2498-0.26367-1.4062-0.34655-0.28514-1.032-0.87918-1.2031-1.3047-0.14038 0.17108-0.15452 0.39728-0.27734 0.57421-0.01462 0.01959-0.0522 0.02924-0.08203 0.04299-1.0543 0.05059-1.4023-1.3482-0.87695-2.0996 0.41382-0.59075-0.03159-0.89212-0.20118-1.4551-0.16231-0.52787-0.11947-1.1572-0.03319-1.6953-1.1084 0.25589 0.16111-5.0757-1.5-5.3535 0.07019 0.35533 0.26698 1.0513-0.06639 1.3379-0.03802-0.51471-0.45811-1.6891 0.03319-2.0547-0.85249-0.49278-0.76885-1.699-1.4824-2.373-0.5308-0.49863-0.36572-2.1295-0.09373-2.7246 0.11698-0.25882-0.38988-0.37277-0.51563-0.48829-0.07633-0.06916-0.11055-0.19619-0.13029-0.33042"/></g></svg>
